<?xml version="1.0" encoding="UTF-8"?> <svg xmlns="http://www.w3.org/2000/svg" height="512px" viewBox="-48 -21 682 682.66508" width="512px"><g><path d="m274.679688 390.832031h70.484374c16.136719 0 16.160157-25.136719 0-25.136719h-70.484374c-33.984376 0-61.640626-27.648437-61.640626-61.640624 0-33.988282 27.652344-61.640626 61.640626-61.640626h103.609374c4.1875 0 7.890626-2.054687 10.175782-5.207031.066406-.058593.136718-.113281.203125-.167969 17.808593-14.648437 35.703125-29.378906 50.894531-46.722656s27.691406-37.578125 32.953125-60.027344c5.429687-23.144531 2.390625-48.238281-6.800781-70.03125-7.574219-17.957031-19.300782-34.488281-35.757813-45.292968-18.300781-12.011719-41.074219-17.046875-62.746093-14.179688-26.679688 3.53125-51.4375 18.910156-67 40.871094-15.558594 21.957031-21.878907 50.105469-17.898438 76.722656 3.746094 25.074219 16.15625 48.25 32.167969 67.910156 9.140625 11.226563 19.441406 21.402344 30.296875 30.988282h-70.09375c-47.851563 0-86.777344 38.933594-86.777344 86.777344 0 47.851562 38.925781 86.777343 86.773438 86.777343zm34.691406-263.488281c-9.109375-30.070312 1.851562-67.375 25.5-86.773438 12.621094-10.351562 28.09375-15.527343 43.5625-15.527343 15.425781 0 30.851562 5.148437 43.453125 15.433593l.226562.1875c24.152344 19.910157 34.769531 59.863282 24.167969 91.03125-11.207031 32.9375-40.488281 58.652344-67.832031 81.292969-28.929688-24.171875-59.023438-52.472656-69.078125-85.644531zm0 0" data-original="#000000" class="active-path" data-old_color="#000000" fill="#4DBBBD"></path><path d="m491.496094 365.695312h-46.207032c-16.136718 0-16.160156 25.136719 0 25.136719h46.207032c37.550781 0 68.097656 30.554688 68.097656 68.101563 0 37.542968-30.546875 68.097656-68.097656 68.097656h-117.578125c-5.777344-26.523438-29.429688-46.453125-57.65625-46.453125h-22.425781l-11.441407-12.355469c-28.511719-30.792968-68.929687-48.453125-110.894531-48.453125h-74.820312c-13.140626 0-23.835938 10.691407-23.835938 23.832031v36.976563h-15.324219c-32.546875 0-59.019531 26.476563-59.019531 59.019531 0 26.46875 17.757812 49.449219 42.519531 56.664063 4.789063 24.878906 26.714844 43.738281 52.96875 43.738281 25.421875 0 46.777344-17.675781 52.460938-41.382812h83.089843c5.683594 23.707031 27.039063 41.382812 52.460938 41.382812 26.507812 0 48.59375-19.226562 53.09375-44.460938 19.742188-6.613281 34.453125-23.195312 38.835938-43.371093h117.566406c51.40625 0 93.234375-41.828125 93.234375-93.234375 0-51.410156-41.828125-93.238282-93.234375-93.238282zm-393.515625 79.210938h73.519531c32.78125 0 64.429688 12.929688 87.84375 35.671875h-161.363281zm-3.988281 169.957031c-15.886719 0-28.816407-12.925781-28.816407-28.816406s12.929688-28.816406 28.816407-28.816406c15.882812 0 28.8125 12.925781 28.8125 28.816406s-12.929688 28.816406-28.8125 28.816406zm188.007812 0c-15.890625 0-28.8125-12.925781-28.8125-28.816406s12.921875-28.816406 28.8125-28.816406c15.886719 0 28.8125 12.925781 28.8125 28.816406s-12.925781 28.816406-28.8125 28.816406zm51.167969-45.894531c-7.164063-21.402344-27.382813-36.875-51.167969-36.875-25.421875 0-46.777344 17.679688-52.457031 41.386719h-83.09375c-5.679688-23.707031-27.039063-41.386719-52.457031-41.386719-24.148438 0-44.644532 15.953125-51.503907 37.871094-11.234375-5.589844-18.847656-17.230469-18.847656-30.371094 0-18.683594 15.195313-33.882812 33.882813-33.882812h27.894531l202.949219.023437c.101562 0 .199218-.019531.300781-.023437h27.597656c18.683594 0 33.882813 15.199218 33.882813 33.882812-.003907 12.421875-6.726563 23.476562-16.980469 29.375zm0 0" data-original="#000000" class="active-path" data-old_color="#000000" fill="#4DBBBD"></path><path d="m426.292969 97.136719c0-26.386719-21.464844-47.855469-47.859375-47.855469-26.386719 0-47.855469 21.46875-47.855469 47.855469 0 26.394531 21.46875 47.863281 47.855469 47.863281 26.394531 0 47.859375-21.46875 47.859375-47.863281zm-70.578125 0c0-12.527344 10.191406-22.71875 22.71875-22.71875 12.53125 0 22.722656 10.191406 22.722656 22.71875 0 12.53125-10.191406 22.726562-22.722656 22.726562-12.527344 0-22.71875-10.195312-22.71875-22.726562zm0 0" data-original="#000000" class="active-path" data-old_color="#000000" fill="#4DBBBD"></path><path d="m387.074219 369.375c-4.835938 4.832031-4.832031 12.9375 0 17.773438 4.828125 4.832031 12.941406 4.832031 17.773437 0 4.691406-4.699219 4.84375-12.476563.371094-17.371094-4.753906-5.195313-13.15625-5.390625-18.144531-.402344-2.339844 2.335938 2.335937-2.339844 0 0zm0 0" data-original="#000000" class="active-path" data-old_color="#000000" fill="#4DBBBD"></path><path d="m282 573.476562c-6.828125 0-12.570312 5.742188-12.570312 12.566407 0 6.832031 5.742187 12.570312 12.570312 12.570312 6.636719 0 12.25-5.40625 12.542969-12.019531.3125-7.03125-5.492188-13.117188-12.542969-13.117188zm0 0" data-original="#000000" class="active-path" data-old_color="#000000" fill="#4DBBBD"></path><path d="m93.988281 573.476562c-6.828125 0-12.570312 5.742188-12.570312 12.566407 0 6.832031 5.742187 12.570312 12.570312 12.570312 6.636719 0 12.25-5.40625 12.542969-12.019531.3125-7.03125-5.492188-13.117188-12.542969-13.117188zm0 0" data-original="#000000" class="active-path" data-old_color="#000000" fill="#4DBBBD"></path></g></svg> 